<svg width="280" height="170" viewBox="-10 -10 280 170" fill="none" xmlns="http://www.w3.org/2000/svg">
    <g transform="rotate(0.00 130 75)">
    
    <!-- Sticker backing -->
    <defs>
      <clipPath id="border-clip">
        <path d="M0,0 H260 V150 H0 Z M12,12 V138 H248 V12 Z" clip-rule="evenodd"/>
      </clipPath>
    </defs>

    <!-- White sticker background -->
    <rect x="0" y="0" width="260" height="150" fill="#fff"/>

    <!-- Airmail striped border -->
    <g clip-path="url(#border-clip)">
      <rect x="-80" y="-20" width="8" height="250" fill="#87A878" transform="skewX(-45)"/><rect x="-72" y="-20" width="8" height="250" fill="#ffffff" transform="skewX(-45)"/><rect x="-64" y="-20" width="8" height="250" fill="#4A5D42" transform="skewX(-45)"/><rect x="-56" y="-20" width="8" height="250" fill="#ffffff" transform="skewX(-45)"/><rect x="-48" y="-20" width="8" height="250" fill="#87A878" transform="skewX(-45)"/><rect x="-40" y="-20" width="8" height="250" fill="#ffffff" transform="skewX(-45)"/><rect x="-32" y="-20" width="8" height="250" fill="#4A5D42" transform="skewX(-45)"/><rect x="-24" y="-20" width="8" height="250" fill="#ffffff" transform="skewX(-45)"/><rect x="-16" y="-20" width="8" height="250" fill="#87A878" transform="skewX(-45)"/><rect x="-8" y="-20" width="8" height="250" fill="#ffffff" transform="skewX(-45)"/><rect x="0" y="-20" width="8" height="250" fill="#4A5D42" transform="skewX(-45)"/><rect x="8" y="-20" width="8" height="250" fill="#ffffff" transform="skewX(-45)"/><rect x="16" y="-20" width="8" height="250" fill="#87A878" transform="skewX(-45)"/><rect x="24" y="-20" width="8" height="250" fill="#ffffff" transform="skewX(-45)"/><rect x="32" y="-20" width="8" height="250" fill="#4A5D42" transform="skewX(-45)"/><rect x="40" y="-20" width="8" height="250" fill="#ffffff" transform="skewX(-45)"/><rect x="48" y="-20" width="8" height="250" fill="#87A878" transform="skewX(-45)"/><rect x="56" y="-20" width="8" height="250" fill="#ffffff" transform="skewX(-45)"/><rect x="64" y="-20" width="8" height="250" fill="#4A5D42" transform="skewX(-45)"/><rect x="72" y="-20" width="8" height="250" fill="#ffffff" transform="skewX(-45)"/><rect x="80" y="-20" width="8" height="250" fill="#87A878" transform="skewX(-45)"/><rect x="88" y="-20" width="8" height="250" fill="#ffffff" transform="skewX(-45)"/><rect x="96" y="-20" width="8" height="250" fill="#4A5D42" transform="skewX(-45)"/><rect x="104" y="-20" width="8" height="250" fill="#ffffff" transform="skewX(-45)"/><rect x="112" y="-20" width="8" height="250" fill="#87A878" transform="skewX(-45)"/><rect x="120" y="-20" width="8" height="250" fill="#ffffff" transform="skewX(-45)"/><rect x="128" y="-20" width="8" height="250" fill="#4A5D42" transform="skewX(-45)"/><rect x="136" y="-20" width="8" height="250" fill="#ffffff" transform="skewX(-45)"/><rect x="144" y="-20" width="8" height="250" fill="#87A878" transform="skewX(-45)"/><rect x="152" y="-20" width="8" height="250" fill="#ffffff" transform="skewX(-45)"/><rect x="160" y="-20" width="8" height="250" fill="#4A5D42" transform="skewX(-45)"/><rect x="168" y="-20" width="8" height="250" fill="#ffffff" transform="skewX(-45)"/><rect x="176" y="-20" width="8" height="250" fill="#87A878" transform="skewX(-45)"/><rect x="184" y="-20" width="8" height="250" fill="#ffffff" transform="skewX(-45)"/><rect x="192" y="-20" width="8" height="250" fill="#4A5D42" transform="skewX(-45)"/><rect x="200" y="-20" width="8" height="250" fill="#ffffff" transform="skewX(-45)"/><rect x="208" y="-20" width="8" height="250" fill="#87A878" transform="skewX(-45)"/><rect x="216" y="-20" width="8" height="250" fill="#ffffff" transform="skewX(-45)"/><rect x="224" y="-20" width="8" height="250" fill="#4A5D42" transform="skewX(-45)"/><rect x="232" y="-20" width="8" height="250" fill="#ffffff" transform="skewX(-45)"/><rect x="240" y="-20" width="8" height="250" fill="#87A878" transform="skewX(-45)"/><rect x="248" y="-20" width="8" height="250" fill="#ffffff" transform="skewX(-45)"/><rect x="256" y="-20" width="8" height="250" fill="#4A5D42" transform="skewX(-45)"/><rect x="264" y="-20" width="8" height="250" fill="#ffffff" transform="skewX(-45)"/><rect x="272" y="-20" width="8" height="250" fill="#87A878" transform="skewX(-45)"/><rect x="280" y="-20" width="8" height="250" fill="#ffffff" transform="skewX(-45)"/><rect x="288" y="-20" width="8" height="250" fill="#4A5D42" transform="skewX(-45)"/><rect x="296" y="-20" width="8" height="250" fill="#ffffff" transform="skewX(-45)"/><rect x="304" y="-20" width="8" height="250" fill="#87A878" transform="skewX(-45)"/><rect x="312" y="-20" width="8" height="250" fill="#ffffff" transform="skewX(-45)"/><rect x="320" y="-20" width="8" height="250" fill="#4A5D42" transform="skewX(-45)"/><rect x="328" y="-20" width="8" height="250" fill="#ffffff" transform="skewX(-45)"/><rect x="336" y="-20" width="8" height="250" fill="#87A878" transform="skewX(-45)"/><rect x="344" y="-20" width="8" height="250" fill="#ffffff" transform="skewX(-45)"/><rect x="352" y="-20" width="8" height="250" fill="#4A5D42" transform="skewX(-45)"/><rect x="360" y="-20" width="8" height="250" fill="#ffffff" transform="skewX(-45)"/><rect x="368" y="-20" width="8" height="250" fill="#87A878" transform="skewX(-45)"/><rect x="376" y="-20" width="8" height="250" fill="#ffffff" transform="skewX(-45)"/><rect x="384" y="-20" width="8" height="250" fill="#4A5D42" transform="skewX(-45)"/><rect x="392" y="-20" width="8" height="250" fill="#ffffff" transform="skewX(-45)"/>
    </g>

    <!-- Inner white area -->
    <rect x="12" y="12" width="236" height="126" fill="#fafafa"/>
      <!-- Top stripes -->
      <rect x="0" y="0" width="22" height="14" fill="#87A878"/>
    <rect x="44" y="0" width="22" height="14" fill="#4A5D42"/>
    <rect x="88" y="0" width="22" height="14" fill="#87A878"/>
    <rect x="132" y="0" width="22" height="14" fill="#4A5D42"/>
    <rect x="176" y="0" width="22" height="14" fill="#87A878"/>
    <rect x="220" y="0" width="22" height="14" fill="#4A5D42"/>
      <!-- Bottom stripes -->
      <rect x="0" y="136" width="22" height="14" fill="#4A5D42"/>
    <rect x="44" y="136" width="22" height="14" fill="#87A878"/>
    <rect x="88" y="136" width="22" height="14" fill="#4A5D42"/>
    <rect x="132" y="136" width="22" height="14" fill="#87A878"/>
    <rect x="176" y="136" width="22" height="14" fill="#4A5D42"/>
    <rect x="220" y="136" width="22" height="14" fill="#87A878"/>

      <!-- Content -->
      <text x="130" y="42" text-anchor="middle" font-family="Georgia, serif" font-size="10" letter-spacing="3" fill="#888">A DISPATCH FROM</text>
      <text x="130" y="75" text-anchor="middle" font-family="Georgia, serif" font-size="32" font-weight="bold" fill="#1a1a1a">postmarks</text>
      <text x="130" y="100" text-anchor="middle" font-family="Georgia, serif" font-size="16" fill="#666">nk412.com</text>
      <!-- Icon -->
      
      
    </g>
  </svg>